<?xml version="1.0" encoding="UTF-8" standalone="no"?>
<!-- Created with Fritzing (http://www.fritzing.org/) -->

<svg
   xmlns:dc="http://purl.org/dc/elements/1.1/"
   xmlns:cc="http://creativecommons.org/ns#"
   xmlns:rdf="http://www.w3.org/1999/02/22-rdf-syntax-ns#"
   xmlns:svg="http://www.w3.org/2000/svg"
   xmlns="http://www.w3.org/2000/svg"
   xmlns:sodipodi="http://sodipodi.sourceforge.net/DTD/sodipodi-0.dtd"
   xmlns:inkscape="http://www.inkscape.org/namespaces/inkscape"
   version="1.2"
   x="0in"
   y="0in"
   width="0.58822691in"
   height="0.31263641in"
   viewBox="0 0 42.352296 22.509757"
   id="svg80"
   sodipodi:docname="lbr127hld_pcb.svg"
   inkscape:version="0.92.4 (5da689c313, 2019-01-14)">
  <metadata
     id="metadata86">
    <rdf:RDF>
      <cc:Work
         rdf:about="">
        <dc:format>image/svg+xml</dc:format>
        <dc:type
           rdf:resource="http://purl.org/dc/dcmitype/StillImage" />
        <dc:title></dc:title>
      </cc:Work>
    </rdf:RDF>
  </metadata>
  <defs
     id="defs84" />
  <sodipodi:namedview
     pagecolor="#ffffff"
     bordercolor="#666666"
     borderopacity="1"
     objecttolerance="10"
     gridtolerance="10"
     guidetolerance="10"
     inkscape:pageopacity="0"
     inkscape:pageshadow="2"
     inkscape:window-width="3840"
     inkscape:window-height="2035"
     id="namedview82"
     showgrid="false"
     inkscape:zoom="7.8632194"
     inkscape:cx="-9.3451326"
     inkscape:cy="81.137222"
     inkscape:window-x="-13"
     inkscape:window-y="-13"
     inkscape:window-maximized="1"
     inkscape:current-layer="svg80"
     fit-margin-top="0"
     fit-margin-left="0"
     fit-margin-right="0"
     fit-margin-bottom="0" />
  <g
     partID="58041"
     id="g78"
     transform="translate(0,-2.1588201e-5)">
    <g
       id="silkscreen">
      <rect
         height="21.2598"
         width="41.102299"
         id="rect928"
         x="0.625"
         y="0.625"
         style="display:inline;fill:none;fill-opacity:1;stroke:#808080;stroke-width:1.25;stroke-opacity:1" />
      <g
         aria-label="A"
         style="font-style:normal;font-variant:normal;font-weight:normal;font-stretch:normal;font-size:1.05833328px;line-height:1.25;font-family:OCRA;-inkscape-font-specification:'OCRA, Normal';font-variant-ligatures:normal;font-variant-caps:normal;font-variant-numeric:normal;text-align:start;letter-spacing:0px;word-spacing:0px;writing-mode:lr-tb;text-anchor:start;fill:#808080;fill-opacity:1;stroke:none;stroke-width:0.26458332"
         id="text833"
         transform="matrix(2.834643,0,0,2.834643,-177.21532,-337.45326)">
        <path
           d="m 75.10585,122.3265 0.214842,-0.73342 q 0.0053,-0.0169 0.01905,-0.0275 0.01376,-0.0106 0.03175,-0.0106 0.01799,0 0.03281,0.0106 0.01482,0.0106 0.01905,0.0275 l 0.213783,0.73342 q 0,0.0222 -0.01693,0.0381 -0.01587,0.0159 -0.0381,0.0159 -0.01799,0 -0.03175,-0.0106 -0.01376,-0.0106 -0.01905,-0.0275 l -0.04127,-0.14182 h -0.236008 l -0.04127,0.14182 q -0.0053,0.0169 -0.02011,0.0275 -0.01376,0.0106 -0.03175,0.0106 -0.02222,0 -0.03916,-0.0159 -0.01587,-0.0159 -0.01587,-0.0381 z m 0.179917,-0.23283 h 0.172508 l -0.08678,-0.29422 z"
           style="fill:#808080;fill-opacity:1;stroke-width:0.26458332"
           id="path857"
           inkscape:connector-curvature="0" />
      </g>
      <g
         aria-label="K"
         style="font-style:normal;font-variant:normal;font-weight:normal;font-stretch:normal;font-size:1.05833328px;line-height:1.25;font-family:OCRA;-inkscape-font-specification:'OCRA, Normal';font-variant-ligatures:normal;font-variant-caps:normal;font-variant-numeric:normal;text-align:start;letter-spacing:0px;word-spacing:0px;writing-mode:lr-tb;text-anchor:start;fill:#808080;fill-opacity:1;stroke:none;stroke-width:0.26458332"
         id="text837"
         transform="matrix(2.834643,0,0,2.834643,-177.21532,-337.49693)">
        <path
           d="m 75.107964,125.04528 v -0.7186 q 0,-0.0212 0.01482,-0.037 0.01587,-0.0159 0.0381,-0.0159 0.02222,0 0.0381,0.0159 0.01587,0.0159 0.01587,0.037 v 0.24341 l 0.331258,-0.28363 q 0.01587,-0.0127 0.03493,-0.0127 0.02222,0 0.0381,0.0159 0.01587,0.0159 0.01587,0.037 0,0.0254 -0.01905,0.0413 l -0.372533,0.31856 0.372533,0.31856 q 0.01905,0.0159 0.01905,0.0402 0,0.0222 -0.01587,0.0381 -0.01588,0.0159 -0.0381,0.0159 -0.01905,0 -0.03493,-0.0127 l -0.331258,-0.28363 v 0.24235 q 0,0.0222 -0.01587,0.0381 -0.01588,0.0159 -0.0381,0.0159 -0.02223,0 -0.0381,-0.0159 -0.01482,-0.0159 -0.01482,-0.0381 z"
           style="fill:#808080;fill-opacity:1;stroke-width:0.26458332"
           id="path860"
           inkscape:connector-curvature="0" />
      </g>
      <g
         aria-label="C"
         style="font-style:normal;font-variant:normal;font-weight:normal;font-stretch:normal;font-size:1.05833328px;line-height:1.25;font-family:OCRA;-inkscape-font-specification:'OCRA, Normal';font-variant-ligatures:normal;font-variant-caps:normal;font-variant-numeric:normal;text-align:start;letter-spacing:0px;word-spacing:0px;writing-mode:lr-tb;text-anchor:start;fill:#808080;fill-opacity:1;stroke:none;stroke-width:0.26458332"
         id="text841"
         transform="matrix(2.834643,0,0,2.834643,-188.1841,-338.20826)">
        <path
           d="m 67.972054,124.68651 q 0,-0.0561 0.0254,-0.10901 l 0.106892,-0.2159 q 0.01693,-0.0381 0.05609,-0.0624 0.04022,-0.0254 0.08784,-0.0254 h 0.19685 q 0.02223,0 0.0381,0.0159 0.01588,0.0159 0.01588,0.037 0,0.0222 -0.01588,0.0381 -0.01587,0.0159 -0.0381,0.0159 h -0.19685 q -0.03281,0 -0.04657,0.0296 l -0.109009,0.21485 q -0.01376,0.0296 -0.01376,0.0614 0,0.0318 0.01376,0.0614 l 0.109009,0.21484 q 0.01376,0.0296 0.04657,0.0296 h 0.19685 q 0.02223,0 0.0381,0.0159 0.01588,0.0159 0.01588,0.037 0,0.0222 -0.01588,0.0381 -0.01587,0.0159 -0.0381,0.0159 h -0.19685 q -0.04657,0 -0.08572,-0.0254 -0.0381,-0.0254 -0.05715,-0.0635 -0.07832,-0.14923 -0.10795,-0.21484 -0.0254,-0.054 -0.0254,-0.10901 z"
           style="fill:#808080;fill-opacity:1;stroke-width:0.26458332"
           id="path863"
           inkscape:connector-curvature="0" />
      </g>
      <g
         aria-label="E"
         style="font-style:normal;font-variant:normal;font-weight:normal;font-stretch:normal;font-size:1.05833328px;line-height:1.25;font-family:OCRA;-inkscape-font-specification:'OCRA, Normal';font-variant-ligatures:normal;font-variant-caps:normal;font-variant-numeric:normal;text-align:start;letter-spacing:0px;word-spacing:0px;writing-mode:lr-tb;text-anchor:start;fill:#808080;fill-opacity:1;stroke:none;stroke-width:0.26458332"
         id="text845"
         transform="matrix(2.834643,0,0,2.834643,-188.1841,-338.12092)">
        <path
           d="m 67.972054,122.38048 v -0.8255 h 0.473075 q 0.02223,0 0.0381,0.0159 0.01588,0.0159 0.01588,0.037 0,0.0222 -0.01588,0.0381 -0.01587,0.0159 -0.0381,0.0159 h -0.366183 v 0.25188 h 0.156633 q 0.02117,0 0.03704,0.0159 0.01587,0.0159 0.01587,0.0381 0,0.0222 -0.01587,0.0381 -0.01587,0.0148 -0.03704,0.0148 h -0.156633 v 0.25295 h 0.366183 q 0.02223,0 0.0381,0.0159 0.01588,0.0159 0.01588,0.037 0,0.0222 -0.01588,0.0381 -0.01587,0.0159 -0.0381,0.0159 z"
           style="fill:#808080;fill-opacity:1;stroke-width:0.26458332"
           id="path866"
           inkscape:connector-curvature="0" />
      </g>
    </g>
  </g>
  <g
     id="g1040">
    <g
       inkscape:label="copper1"
       id="g1031">
      <g
         id="copper0"
         transform="translate(0,-2.1588201e-5)">
        <path
           d="m 34.2437,2.23425 h -6.65197 v 6.65197 h 6.65197 z m -1.19998,3.326 a 2.125985,2.125985 0 1 1 -4.25197,0 2.125985,2.125985 0 1 1 4.25197,0 z"
           id="path3"
           inkscape:connector-curvature="0"
           style="fill:#f7bd13;stroke:none;stroke-width:0" />
        <circle
           connectorname="C"
           r="2.72598"
           cx="-11.5477"
           cy="17.393801"
           gorn="0.1.5.4"
           id="connector1pad"
           style="fill:none;stroke:#f7bd13;stroke-width:1.20000005"
           transform="scale(-1,1)" />
        <circle
           connectorname="E"
           r="2.72598"
           cx="-11.5477"
           cy="5.3938498"
           gorn="0.1.5.3"
           id="connector2pad"
           style="fill:none;stroke:#f7bd13;stroke-width:1.20000005"
           transform="scale(-1,1)"
           inkscape:label="connector2pin" />
        <circle
           connectorname="K"
           r="2.72598"
           cx="-30.9177"
           cy="17.560301"
           gorn="0.1.5.2"
           id="connector3pad"
           style="fill:none;stroke:#f7bd13;stroke-width:1.20000005"
           transform="scale(-1,1)"
           inkscape:label="connector3pin" />
        <circle
           inkscape:label="connector0pin"
           connectorname="A"
           r="2.72598"
           cx="-30.9177"
           cy="5.5602598"
           gorn="0.1.5.0"
           id="connector0pad"
           style="fill:none;stroke:#f7bd13;stroke-width:1.20000005"
           transform="scale(-1,1)" />
      </g>
    </g>
  </g>
</svg>
