<?xml version="1.0" encoding="UTF-8" standalone="no"?>
<!-- Created with Inkscape (http://www.inkscape.org/) -->

<svg
   xmlns:dc="http://purl.org/dc/elements/1.1/"
   xmlns:cc="http://creativecommons.org/ns#"
   xmlns:rdf="http://www.w3.org/1999/02/22-rdf-syntax-ns#"
   xmlns:svg="http://www.w3.org/2000/svg"
   xmlns="http://www.w3.org/2000/svg"
   xmlns:sodipodi="http://sodipodi.sourceforge.net/DTD/sodipodi-0.dtd"
   xmlns:inkscape="http://www.inkscape.org/namespaces/inkscape"
   width="8.6999989mm"
   height="8.1200008mm"
   viewBox="0 0 8.6999988 8.1200008"
   version="1.1"
   id="svg5113"
   inkscape:label="framept"
   inkscape:version="0.92.4 (5da689c313, 2019-01-14)"
   sodipodi:docname="lbr127hld_breadboard.svg">
  <defs
     id="defs5108" />
  <sodipodi:namedview
     id="base"
     pagecolor="#ffffff"
     bordercolor="#666666"
     borderopacity="1.0"
     inkscape:pageopacity="0.0"
     inkscape:pageshadow="2"
     inkscape:zoom="51.091947"
     inkscape:cx="10.657253"
     inkscape:cy="15.344884"
     inkscape:document-units="mm"
     showgrid="false"
     inkscape:window-width="3000"
     inkscape:window-height="1875"
     inkscape:window-x="-13"
     inkscape:window-y="-13"
     inkscape:window-maximized="1"
     inkscape:current-layer="g858"
     fit-margin-top="0"
     fit-margin-left="0"
     fit-margin-right="0"
     fit-margin-bottom="0">
    <inkscape:grid
       type="xygrid"
       id="grid5658"
       originx="-67.483328"
       originy="-169.59192" />
  </sodipodi:namedview>
  <metadata
     id="metadata5111">
    <rdf:RDF>
      <cc:Work
         rdf:about="">
        <dc:format>image/svg+xml</dc:format>
        <dc:type
           rdf:resource="http://purl.org/dc/dcmitype/StillImage" />
        <dc:title></dc:title>
      </cc:Work>
    </rdf:RDF>
  </metadata>
  <g
     id="g858"
     inkscape:label="breadboard"
     transform="translate(0,1.7786043)">
    <g
       id="g938">
      <rect
         transform="rotate(-30)"
         y="-0.99650544"
         x="1.0210437"
         height="2.1719277"
         width="0.41590104"
         id="rect885"
         style="fill:#808080;fill-opacity:1;stroke-width:0.26458332" />
      <rect
         transform="rotate(-30)"
         y="7.141171"
         x="3.8244419"
         height="2.1719277"
         width="0.41590104"
         id="rect885-2"
         style="fill:#808080;fill-opacity:1;stroke-width:0.26458332" />
      <rect
         transform="matrix(-0.8660254,-0.5,-0.5,0.8660254,0,0)"
         y="-5.3432503"
         x="-6.5042858"
         height="2.1719277"
         width="0.41590104"
         id="rect885-2-5"
         style="fill:#808080;fill-opacity:1;stroke-width:0.26458332" />
      <rect
         transform="matrix(-0.8660254,-0.5,-0.5,0.8660254,0,0)"
         y="2.8124616"
         x="-3.7503226"
         height="2.1719277"
         width="0.41590104"
         id="rect885-2-5-0"
         style="fill:#808080;fill-opacity:1;stroke-width:0.26458332" />
    </g>
    <path
       sodipodi:nodetypes="cccccc"
       inkscape:connector-curvature="0"
       id="rect5660"
       d="M 8.699999,0.44525 V 4.5 H 0 V 0 l 8.270469,0.007 c 0.144295,0.14499 0.286868,0.29166 0.42953,0.43825 z"
       style="display:inline;fill:#000000;fill-opacity:1;stroke-width:0.26458332" />
    <rect
       inkscape:label="framept"
       y="0.45000032"
       x="0.43171927"
       height="3.5999999"
       width="3.7"
       id="rect5681"
       style="display:inline;fill:#808080;fill-opacity:1;stroke-width:0.26458332" />
    <rect
       inkscape:label="framepd"
       y="0.45000032"
       x="4.5556207"
       height="3.6000001"
       width="3.7"
       id="rect5681-9"
       style="display:inline;fill:#808080;fill-opacity:1;stroke-width:0.26458332" />
    <g
       transform="translate(-67.483335,-121.06666)"
       inkscape:label="phototr"
       id="g5749">
      <circle
         style="fill:#404040;fill-opacity:1;stroke-width:0.26458332"
         id="path5664"
         cx="69.768196"
         cy="123.31667"
         r="1.45"
         inkscape:label="phototr" />
      <path
         style="fill:#ffffff;fill-opacity:1;stroke-width:0.26458332"
         d="m 68.556886,122.94451 h 0.166454 c -0.107496,0.24807 -0.09911,0.469 0,0.68801 h -0.166454 c -0.0954,-0.19284 -0.0821,-0.43667 0,-0.68801 z"
         id="rect5725"
         inkscape:connector-curvature="0"
         sodipodi:nodetypes="ccccc" />
    </g>
    <g
       transform="translate(-67.483335,-121.06666)"
       inkscape:label="photod"
       id="g5745">
      <circle
         style="fill:#c4c4c4;fill-opacity:1;stroke-width:0.26458332"
         id="path5664-0"
         cx="73.850761"
         cy="123.31667"
         r="1.45"
         inkscape:label="photod" />
      <path
         style="fill:#ffffff;fill-opacity:1;stroke-width:0.26458332"
         d="m 72.635048,122.93343 h 0.166454 c -0.107496,0.24807 -0.09911,0.469 0,0.68801 h -0.166454 c -0.0954,-0.19284 -0.0821,-0.43667 0,-0.68801 z"
         id="rect5725-9"
         inkscape:connector-curvature="0"
         sodipodi:nodetypes="ccccc"
         inkscape:label="photodref" />
    </g>
    <g
       transform="translate(-67.483335,-121.06666)"
       style="fill:#ffffff;fill-opacity:1"
       inkscape:label="text"
       id="g855">
      <g
         id="text833"
         style="font-style:normal;font-variant:normal;font-weight:normal;font-stretch:normal;font-size:1.05833328px;line-height:1.25;font-family:OCRA;-inkscape-font-specification:'OCRA, Normal';font-variant-ligatures:normal;font-variant-caps:normal;font-variant-numeric:normal;text-align:start;letter-spacing:0px;word-spacing:0px;writing-mode:lr-tb;text-anchor:start;fill:#ffffff;fill-opacity:1;stroke:none;stroke-width:0.26458332"
         aria-label="A">
        <path
           inkscape:connector-curvature="0"
           id="path857"
           style="fill:#ffffff;fill-opacity:1;stroke-width:0.26458332"
           d="m 75.10585,122.3265 0.214842,-0.73342 q 0.0053,-0.0169 0.01905,-0.0275 0.01376,-0.0106 0.03175,-0.0106 0.01799,0 0.03281,0.0106 0.01482,0.0106 0.01905,0.0275 l 0.213783,0.73342 q 0,0.0222 -0.01693,0.0381 -0.01587,0.0159 -0.0381,0.0159 -0.01799,0 -0.03175,-0.0106 -0.01376,-0.0106 -0.01905,-0.0275 l -0.04127,-0.14182 h -0.236008 l -0.04127,0.14182 q -0.0053,0.0169 -0.02011,0.0275 -0.01376,0.0106 -0.03175,0.0106 -0.02222,0 -0.03916,-0.0159 -0.01587,-0.0159 -0.01587,-0.0381 z m 0.179917,-0.23283 h 0.172508 l -0.08678,-0.29422 z" />
      </g>
      <g
         transform="translate(0,-0.01540504)"
         id="text837"
         style="font-style:normal;font-variant:normal;font-weight:normal;font-stretch:normal;font-size:1.05833328px;line-height:1.25;font-family:OCRA;-inkscape-font-specification:'OCRA, Normal';font-variant-ligatures:normal;font-variant-caps:normal;font-variant-numeric:normal;text-align:start;letter-spacing:0px;word-spacing:0px;writing-mode:lr-tb;text-anchor:start;fill:#ffffff;fill-opacity:1;stroke:none;stroke-width:0.26458332"
         aria-label="K">
        <path
           inkscape:connector-curvature="0"
           id="path860"
           style="fill:#ffffff;fill-opacity:1;stroke-width:0.26458332"
           d="m 75.107964,125.04528 v -0.7186 q 0,-0.0212 0.01482,-0.037 0.01587,-0.0159 0.0381,-0.0159 0.02222,0 0.0381,0.0159 0.01587,0.0159 0.01587,0.037 v 0.24341 l 0.331258,-0.28363 q 0.01587,-0.0127 0.03493,-0.0127 0.02222,0 0.0381,0.0159 0.01587,0.0159 0.01587,0.037 0,0.0254 -0.01905,0.0413 l -0.372533,0.31856 0.372533,0.31856 q 0.01905,0.0159 0.01905,0.0402 0,0.0222 -0.01587,0.0381 -0.01588,0.0159 -0.0381,0.0159 -0.01905,0 -0.03493,-0.0127 l -0.331258,-0.28363 v 0.24235 q 0,0.0222 -0.01587,0.0381 -0.01588,0.0159 -0.0381,0.0159 -0.02223,0 -0.0381,-0.0159 -0.01482,-0.0159 -0.01482,-0.0381 z" />
      </g>
      <g
         transform="translate(0,-0.03081009)"
         id="text841"
         style="font-style:normal;font-variant:normal;font-weight:normal;font-stretch:normal;font-size:1.05833328px;line-height:1.25;font-family:OCRA;-inkscape-font-specification:'OCRA, Normal';font-variant-ligatures:normal;font-variant-caps:normal;font-variant-numeric:normal;text-align:start;letter-spacing:0px;word-spacing:0px;writing-mode:lr-tb;text-anchor:start;fill:#ffffff;fill-opacity:1;stroke:none;stroke-width:0.26458332"
         aria-label="C">
        <path
           inkscape:connector-curvature="0"
           id="path863"
           style="fill:#ffffff;fill-opacity:1;stroke-width:0.26458332"
           d="m 67.972054,124.68651 q 0,-0.0561 0.0254,-0.10901 l 0.106892,-0.2159 q 0.01693,-0.0381 0.05609,-0.0624 0.04022,-0.0254 0.08784,-0.0254 h 0.19685 q 0.02223,0 0.0381,0.0159 0.01588,0.0159 0.01588,0.037 0,0.0222 -0.01588,0.0381 -0.01587,0.0159 -0.0381,0.0159 h -0.19685 q -0.03281,0 -0.04657,0.0296 l -0.109009,0.21485 q -0.01376,0.0296 -0.01376,0.0614 0,0.0318 0.01376,0.0614 l 0.109009,0.21484 q 0.01376,0.0296 0.04657,0.0296 h 0.19685 q 0.02223,0 0.0381,0.0159 0.01588,0.0159 0.01588,0.037 0,0.0222 -0.01588,0.0381 -0.01587,0.0159 -0.0381,0.0159 h -0.19685 q -0.04657,0 -0.08572,-0.0254 -0.0381,-0.0254 -0.05715,-0.0635 -0.07832,-0.14923 -0.10795,-0.21484 -0.0254,-0.054 -0.0254,-0.10901 z" />
      </g>
      <g
         id="text845"
         style="font-style:normal;font-variant:normal;font-weight:normal;font-stretch:normal;font-size:1.05833328px;line-height:1.25;font-family:OCRA;-inkscape-font-specification:'OCRA, Normal';font-variant-ligatures:normal;font-variant-caps:normal;font-variant-numeric:normal;text-align:start;letter-spacing:0px;word-spacing:0px;writing-mode:lr-tb;text-anchor:start;fill:#ffffff;fill-opacity:1;stroke:none;stroke-width:0.26458332"
         aria-label="E">
        <path
           inkscape:connector-curvature="0"
           id="path866"
           style="fill:#ffffff;fill-opacity:1;stroke-width:0.26458332"
           d="m 67.972054,122.38048 v -0.8255 h 0.473075 q 0.02223,0 0.0381,0.0159 0.01588,0.0159 0.01588,0.037 0,0.0222 -0.01588,0.0381 -0.01587,0.0159 -0.0381,0.0159 h -0.366183 v 0.25188 h 0.156633 q 0.02117,0 0.03704,0.0159 0.01587,0.0159 0.01587,0.0381 0,0.0222 -0.01587,0.0381 -0.01587,0.0148 -0.03704,0.0148 h -0.156633 v 0.25295 h 0.366183 q 0.02223,0 0.0381,0.0159 0.01588,0.0159 0.01588,0.037 0,0.0222 -0.01588,0.0381 -0.01587,0.0159 -0.0381,0.0159 z" />
      </g>
    </g>
    <g
       id="g954"
       inkscape:label="pins">
      <circle
         inkscape:label="connector1pin"
         transform="rotate(90)"
         r="0.25"
         cy="-8.1692324"
         cx="6.0913968"
         id="path838"
         style="fill:#000000;fill-opacity:0;stroke-width:0.26458332" />
      <circle
         inkscape:label="connector0pin"
         transform="rotate(90)"
         r="0.25"
         cy="-8.1692324"
         cx="-1.528604"
         id="path838-3"
         style="fill:#000000;fill-opacity:0;stroke-width:0.26458332" />
      <circle
         inkscape:label="connector3pin"
         transform="rotate(90)"
         r="0.25"
         cy="-0.54923272"
         cx="6.0913954"
         id="path838-5"
         style="fill:#000000;fill-opacity:0;stroke-width:0.26458332" />
      <circle
         inkscape:label="connector2pin"
         transform="rotate(90)"
         r="0.25"
         cy="-0.54923272"
         cx="-1.5286043"
         id="path838-59"
         style="fill:#000000;fill-opacity:0;stroke-width:0.26458332" />
    </g>
  </g>
</svg>
